<svg xmlns="http://www.w3.org/2000/svg" viewBox="0 0 316.63 474.07"><defs><style>.cls-1{fill:#e7f6ff;}.cls-2{opacity:0.5;}.cls-3{fill:#bbd2e5;}.cls-4{fill:#fff;}.cls-5{fill:#f3aa9f;}.cls-6{fill:#e1978f;}.cls-7{fill:#426572;}</style></defs><title>Asset 96</title><g id="Layer_2" data-name="Layer 2"><g id="Layer_1-2" data-name="Layer 1"><path class="cls-1" d="M97.29,41.1a15.85,15.85,0,1,1,15.85-15.85A15.87,15.87,0,0,1,97.29,41.1Zm0-19.7a3.85,3.85,0,1,0,3.85,3.85A3.85,3.85,0,0,0,97.29,21.4Z"/><circle class="cls-1" cx="125.57" cy="35.86" r="5.56"/><g class="cls-2"><path class="cls-3" d="M206.16,325.89V338.1c-3.53,11.23-9.08,24.37-16.37,38.86-3,5.75-6.21,11.82-9.65,18.06,2.35-4,4.61-7.91,6.79-11.81-2.54,4.82-5.23,9.83-8.07,14.92v-19l.84-1.59-.84,1.5v-.7q1.9-3.59,3.7-7c7.91-15.74,13.78-29.87,17.24-41.71C201.95,328.42,204.07,327.17,206.16,325.89Z"/></g><path class="cls-4" d="M258.69,148.56c-.12,55.5-45.62,100.78-101.1,100.66-48.05-.1-88.47-34.24-98.34-79.44a100.26,100.26,0,0,1-1.51-17.59c.12-55.47,45.62-100.78,101.09-100.66,48,.1,88.35,34.15,98.31,79.23a.23.23,0,0,0,0,.07A100.19,100.19,0,0,1,258.69,148.56Z"/><path class="cls-5" d="M158.67,6.25C65.36,6.05,7.23,64.77,7,157.24c-.06,28.58,15,73.16,40.92,127,11.72,22.73,26,48,41,73.23,18.42,31.14,38.53,62.29,58.65,90.91l10.06,13.48c3.37-4.21,6.74-8.4,10.11-13.44,20.25-29.37,40.48-59.6,59-90.65,15.19-25.19,28.7-50.38,40.51-73.05,27-53.74,42.25-98.26,42.31-126.84C309.85,67.94,249.46,6.45,158.67,6.25ZM158.14,250c-55.48-.12-100.78-45.6-100.66-101.09S103.1,48.16,158.58,48.28,259.36,93.89,259.24,149.37,213.62,250.15,158.14,250Z"/><path class="cls-6" d="M261.53,298.15c-10.38,19.67-21.95,40.84-34.72,62-18.55,31.05-38.79,61.28-59,90.65-3.37,5-6.74,9.23-10.12,13.44L147.6,450.77C127.48,422.15,107.37,391,89,359.87c-15.09-25.26-29.32-50.51-41-73.23C22,232.78,6.94,188.19,7,159.61c.08-38.16,10-70.56,28.24-95.46-7.21,18.78-11,40.17-11.08,63.75-.06,28.58,15,73.17,40.92,127,11.72,22.72,25.95,48,41,73.23,18.42,31.13,38.53,62.28,58.64,90.9l10.06,13.48c3.38-4.21,6.75-8.4,10.12-13.44,20.24-29.37,40.48-59.6,59-90.65C250.1,318.3,255.95,308.14,261.53,298.15Z"/><path class="cls-7" d="M157.46,474.07l-15.58-20.89c-20.18-28.7-40.56-60.29-58.95-91.37-15.75-26.37-30-51.83-41.23-73.59l-.08-.17C13.94,230.61-.06,186.84,0,158,.1,110.61,15,70.78,43,42.79S110.8,0,158.17,0h.49c46.35.1,86,15.4,114.57,44.23s43.5,68.3,43.41,114.42c-.06,29.13-15,74.08-43.05,130l0,.09c-10.54,20.23-24.69,46.85-40.72,73.44-19.86,33.24-41.11,64.66-59.27,91-3.45,5.15-6.93,9.49-10.29,13.69Zm-4.19-29,4.53,6.07c1.39-1.84,2.77-3.76,4.15-5.82C180,419,201.14,387.86,220.8,354.95c15.84-26.25,29.84-52.61,40.29-72.65,27.12-53.94,41.48-96.7,41.54-123.67.19-86.32-57.69-144.44-144-144.63h-.46C69.42,14,14.19,69.14,14,158c-.06,26.35,13.84,69.18,40.19,123.88C65.27,303.37,79.37,328.53,95,354.65,113.17,385.41,133.32,416.66,153.27,445Zm5.07-187.26h-.24A107.88,107.88,0,0,1,158.33,42h.24a107.76,107.76,0,0,1,75.8,184.24A107.12,107.12,0,0,1,158.34,257.78Zm0-201.75a93.88,93.88,0,0,0-.2,187.75h.21A93.88,93.88,0,0,0,158.54,56Z"/><path class="cls-4" d="M279.18,99.46a127.44,127.44,0,0,1,6.76,21.82c.34,1.72.6,3.41.88,5s.59,3.22.69,4.77l.41,4.48c.11,1.44.28,2.81.26,4.13,0,2.64.05,5,0,7.11s-.3,3.89-.48,5.35c-.38,2.93-.85,4.53-1.37,4.53s-1.07-1.6-1.61-4.45c-.28-1.43-.49-3.17-.82-5.18s-.75-4.29-1.13-6.8c-.16-1.26-.48-2.56-.74-3.92l-.82-4.23c-.23-1.47-.69-2.95-1-4.49s-.72-3.13-1.14-4.74a176.6,176.6,0,0,0-6.95-20.47,163.86,163.86,0,0,0-9.8-19.25L259.77,79l-2.56-3.83c-.8-1.26-1.65-2.41-2.46-3.53s-1.56-2.22-2.32-3.24c-6.09-8.14-10.29-13-9.53-13.83s6.23,2.76,13.65,10.32c.93.94,1.84,2,2.81,3.05s2,2.19,2.93,3.42,2,2.47,3,3.79l3,4.19A121.35,121.35,0,0,1,279.18,99.46Z"/><path class="cls-4" d="M219.19,32.34c6.66,3.86,10.64,8.95,9.4,10.62s-7-.39-13.25-4-10.85-7.45-10.1-9.39S212.55,28.46,219.19,32.34Z"/></g></g></svg>