<svg xmlns="http://www.w3.org/2000/svg" viewBox="0 0 287.32 314.39"><defs><style>.cls-1,.cls-7{fill:#fff;}.cls-2{fill:#32adaa;}.cls-3{fill:#264575;}.cls-4{fill:#0fcbc9;}.cls-5{fill:#0fdad7;}.cls-6{fill:#6ef9f2;}.cls-7{opacity:0.35;}.cls-8{fill:#e8efef;}.cls-9{fill:#db9464;}.cls-10{fill:#e4ae88;}.cls-11{fill:#c68254;}.cls-12{fill:#bc754d;}</style></defs><title>Asset 130</title><g id="Layer_2" data-name="Layer 2"><g id="Layer_1-2" data-name="Layer 1"><circle class="cls-1" cx="11.44" cy="198.8" r="1.42" transform="translate(-1.9 0.12) rotate(-0.55)"/><circle class="cls-1" cx="11.48" cy="203.07" r="1.42" transform="translate(-1.94 0.12) rotate(-0.55)"/><circle class="cls-1" cx="11.52" cy="207.34" r="1.42" transform="translate(-1.98 0.12) rotate(-0.55)"/><circle class="cls-1" cx="7.44" cy="193.8" r="1.42" transform="translate(-1.85 0.08) rotate(-0.55)"/><circle class="cls-1" cx="7.48" cy="198.07" r="1.42" transform="translate(-1.9 0.08) rotate(-0.55)"/><circle class="cls-1" cx="7.52" cy="202.34" r="1.42" transform="translate(-1.94 0.08) rotate(-0.55)"/><circle class="cls-1" cx="16.48" cy="206.07" r="1.42" transform="translate(-1.97 0.17) rotate(-0.55)"/><circle class="cls-1" cx="16.52" cy="210.34" r="1.42" transform="translate(-2.01 0.17) rotate(-0.55)"/><path class="cls-2" d="M34.47,257.92V287.1a25.29,25.29,0,0,0,25.29,25.29H229.4a25.29,25.29,0,0,0,25.29-25.29V257.92"/><path class="cls-3" d="M229.4,314.39H59.77A27.32,27.32,0,0,1,32.47,287.1V257.92h4V287.1a23.32,23.32,0,0,0,23.29,23.29H229.4a23.32,23.32,0,0,0,23.29-23.29V257.92h4V287.1A27.32,27.32,0,0,1,229.4,314.39Z"/><path class="cls-2" d="M247.5,158.14h7.31a31,31,0,0,1,31,31v22.51l-38.31,7.54"/><path class="cls-2" d="M272,214.37v28.34a22.21,22.21,0,0,1-22.21,22.21H247.5V188.39Z"/><path class="cls-2" d="M32.5,159.14a31,31,0,0,0-31,31v22.51l13.83,2.72v28.34a22.21,22.21,0,0,0,22.21,22.21h2.27V159.14Z"/><path class="cls-4" d="M25.33,244.71V216.37L11.5,213.65V191.14a31,31,0,0,1,28.31-30.88v-.12H32.5a31,31,0,0,0-31,31v17.17a6.49,6.49,0,0,0,5.24,6.37l8.59,1.69v28.34a22.21,22.21,0,0,0,22.21,22.21h2.27v-1.38A22.22,22.22,0,0,1,25.33,244.71Z"/><path class="cls-4" d="M263,244.71V216.37l13.83-2.72V191.14a31,31,0,0,0-28.31-30.88v-.12h7.31a31,31,0,0,1,31,31v15.14a9,9,0,0,1-7.24,8.8l-6.59,1.3v28.34a22.21,22.21,0,0,1-22.21,22.21H248.5v-1.38A22.22,22.22,0,0,0,263,244.71Z"/><path class="cls-5" d="M184.13,33.39h-9.06c-33-28.21-62.27,0-62.27,0h-8.36S141.92-39.74,184.13,33.39Z"/><path class="cls-4" d="M175.07,29.39c-33-28.21-62.27,0-62.27,0h-6.06c-1.5,2.43-2.3,4-2.3,4h8.36s29.28-28.21,62.27,0h9.06c-.8-1.39-1.6-2.71-2.4-4Z"/><path class="cls-6" d="M181.09,34.39h3c-42.21-73.13-79.69,0-79.69,0h2.92C116.68,19.66,147.07-19.3,181.09,34.39Z"/><path class="cls-5" d="M248.94,118.8V252.31A49,49,0,0,1,234.58,287h0a49,49,0,0,1-34.68,14.37H89.69A49,49,0,0,1,55,287h0a49,49,0,0,1-14.37-34.68V118.8"/><path class="cls-5" d="M233.38,45.95h0a117.46,117.46,0,0,1,16.16,59.46v14.76H40V105.41A117.46,117.46,0,0,1,56.21,45.95h0"/><path class="cls-4" d="M84.92,303.21a48.68,48.68,0,0,1-15-3.58,49.09,49.09,0,0,1-30.28-45.32V122.17h-.59V107.41A117.37,117.37,0,0,1,55.21,48H72.62L72,49.25a214.76,214.76,0,0,0-19,88.38v52.94A214.61,214.61,0,0,0,84.92,303.21Z"/><path class="cls-4" d="M204.05,303.21a48.68,48.68,0,0,0,15-3.58,49.09,49.09,0,0,0,30.28-45.32V122.17h.59V107.41A117.37,117.37,0,0,0,233.76,48H216.35l.59,1.3a214.76,214.76,0,0,1,19,88.38v52.94A214.61,214.61,0,0,1,204.05,303.21Z"/><path class="cls-4" d="M235.08,51.58l-4.15,4.58a118.85,118.85,0,0,1-176.21,0L51.48,52.6q1.82-3.66,3.89-7.19H231.71Q233.49,48.45,235.08,51.58Z"/><path class="cls-3" d="M39.52,221.66,5,214.87a6.2,6.2,0,0,1-5-6.07V190.14a32.54,32.54,0,0,1,32.5-32.5h7.31v3H32.5A29.53,29.53,0,0,0,3,190.14v18.66a3.2,3.2,0,0,0,2.57,3.13l34.52,6.79Z"/><path class="cls-3" d="M39.81,267.42H37.54a23.74,23.74,0,0,1-23.71-23.71V215.37h3v28.34a20.73,20.73,0,0,0,20.71,20.71h2.27Z"/><path class="cls-3" d="M247.8,221.66l-.58-2.94,32.52-6.4a5.68,5.68,0,0,0,4.58-5.56V190.14a29.53,29.53,0,0,0-29.5-29.5h-7.31v-3h7.31a32.54,32.54,0,0,1,32.5,32.5v16.62a8.69,8.69,0,0,1-7,8.51Z"/><path class="cls-3" d="M249.78,267.42h-2.27v-3h2.27a20.73,20.73,0,0,0,20.71-20.71V215.37h3v28.34A23.74,23.74,0,0,1,249.78,267.42Z"/><path class="cls-3" d="M186.72,35.51H102l1.12-2.18A90.72,90.72,0,0,1,114.4,17C123.83,6.13,134.08.26,144,0c14.55-.4,28.46,10.82,41.4,33.25Zm-79.72-3h74.5C169.55,12.61,157,2.69,144.11,3,125.49,3.47,111.16,25.41,107,32.51Z"/><path class="cls-3" d="M174.09,35.15C160.83,23.8,146.67,20.34,132,24.86a50,50,0,0,0-18.16,10.22l-2.08-2.16c.3-.29,30.66-28.82,64.28-.06Z"/><path class="cls-3" d="M250.71,122.17H37.21V105.41A119.56,119.56,0,0,1,53.65,44.94l3.45,2a115.57,115.57,0,0,0-15.89,58.45v12.76h205.5V105.41A115.57,115.57,0,0,0,230.82,47l3.45-2a119.56,119.56,0,0,1,16.44,60.47Z"/><path class="cls-3" d="M199.06,305H88.86a51,51,0,0,1-51-51V120.47h4V254a47,47,0,0,0,47,47H199.06a47,47,0,0,0,47-47V120.47h4V254a51,51,0,0,1-51,51Z"/><path class="cls-3" d="M256.8,199.19l22.42-27.42c.91-1.11-.67-2.71-1.59-1.59L255.2,197.6c-.91,1.11.67,2.71,1.59,1.59Z"/><path class="cls-3" d="M263.51,183.83l13.28-15.64c.93-1.1-.65-2.7-1.59-1.59l-13.28,15.64c-.93,1.1.65,2.7,1.59,1.59Z"/><path class="cls-6" d="M206,214.39H81a12,12,0,0,0-12,12v2.23a12,12,0,0,1,11-7.23H205a12,12,0,0,1,12,12v45.77a11.88,11.88,0,0,0,1-4.77v-48A12,12,0,0,0,206,214.39Z"/><path class="cls-4" d="M206,275.39H81a12,12,0,0,1-12-12v-41.9a11.89,11.89,0,0,0-.5,3.4v48a12,12,0,0,0,12,12h125a12,12,0,0,0,12-12v-6.1A12,12,0,0,1,206,275.39Z"/><rect class="cls-7" x="198" y="236.39" width="12" height="20" rx="6" ry="6"/><path class="cls-3" d="M206,286.89H81a13.52,13.52,0,0,1-13.5-13.5v-48A13.52,13.52,0,0,1,81,211.89H206a13.52,13.52,0,0,1,13.5,13.5v48A13.52,13.52,0,0,1,206,286.89Zm-125-72a10.51,10.51,0,0,0-10.5,10.5v48A10.51,10.51,0,0,0,81,283.89H206a10.51,10.51,0,0,0,10.5-10.5v-48a10.51,10.51,0,0,0-10.5-10.5Z"/><path class="cls-1" d="M90,233.39,84.85,245a4.55,4.55,0,0,0,4.16,6.4h0a4.55,4.55,0,0,0,4.39-5.77Z"/><path class="cls-8" d="M93.31,245.32a4.55,4.55,0,0,1-4.3,3.07h0a4.54,4.54,0,0,1-4.3-3,4.55,4.55,0,0,0,4.3,6h0a4.55,4.55,0,0,0,4.39-5.77Z"/><path class="cls-3" d="M201,232.89h-4v-3h4Zm-9,0h-5v-3h5Zm-10,0h-5v-3h5Zm-10,0h-5v-3h5Zm-10,0h-5v-3h5Zm-10,0h-5v-3h5Zm-10,0h-5v-3h5Zm-10,0h-5v-3h5Zm-10,0h-5v-3h5Zm-10,0h-5v-3h5Zm-10,0H97v-3h5Zm-10,0H87v-3h5Z"/><polyline class="cls-9" points="156.92 101.89 156.92 213.89 185 213.89 185 101.89"/><polygon class="cls-10" points="185 124.29 185 213.89 177.34 213.89 185 124.29"/><polyline class="cls-11" points="156.92 101.89 156.92 107.89 185 107.89 185 101.89"/><polygon class="cls-3" points="186.5 214.39 155.42 214.39 155.42 100.89 158.42 100.89 158.42 211.39 183.5 211.39 183.5 100.89 186.5 100.89 186.5 214.39"/><rect class="cls-6" x="152" y="97.39" width="37" height="2"/><path class="cls-12" d="M161.5,202.89h-1v-5h1Zm0-11h-1v-5h1Zm0-11h-1v-5h1Zm0-11h-1v-5h1Zm0-11h-1v-5h1Zm0-11h-1v-5h1Zm0-11h-1v-5h1Zm0-11h-1v-5h1Zm0-11h-1v-5h1Z"/><path class="cls-12" d="M181,201.89h-1v-5h1Zm0-11h-1v-5h1Zm0-11h-1v-5h1Zm0-11h-1v-5h1Zm0-11h-1v-5h1Zm0-11h-1v-5h1Zm0-11h-1v-5h1Zm0-11h-1v-5h1Zm0-11h-1v-5h1Z"/><rect class="cls-3" x="164.5" y="193.39" width="2" height="19"/><rect class="cls-3" x="169" y="186.89" width="2" height="19"/><rect class="cls-3" x="152" y="99.39" width="37" height="3"/><circle class="cls-3" cx="170.25" cy="170.14" r="2.75"/><circle class="cls-3" cx="170.25" cy="158.64" r="2.75"/><circle class="cls-3" cx="170.25" cy="147.14" r="2.75"/><path class="cls-1" d="M187,130v18.84c0,2.57-.94,4.72-3.43,5,.28-.62-.57-1.31-.57-2V135a5.1,5.1,0,0,0-5.08-5.08H161.08A5.1,5.1,0,0,0,156,135v16.84a4.93,4.93,0,0,0,.43,2,5.08,5.08,0,0,1-4.43-5V130a5.1,5.1,0,0,1,5.08-5.08h24.84A5.1,5.1,0,0,1,187,130Z"/><path class="cls-8" d="M188,130v18.84a5.08,5.08,0,0,1-4.43,5,4.93,4.93,0,0,0,.43-2V135a5.09,5.09,0,0,0-3.07-4.66,24.4,24.4,0,0,0,2.48-5.39A5.09,5.09,0,0,1,188,130Z"/><path class="cls-3" d="M157.57,155.55l-1.77-.22c-3-.37-4.31-3.79-4.31-7V129.47a6.09,6.09,0,0,1,6.08-6.08h24.84a6.09,6.09,0,0,1,6.08,6.08v18.84c0,3.23-1.33,6.65-4.31,7l-1.77.22.7-1.55a6.45,6.45,0,0,0-.29-1.17,5.57,5.57,0,0,1-.33-1.52V134.47a4.08,4.08,0,0,0-4.08-4.08H161.58a4.08,4.08,0,0,0-4.08,4.08v16.84a5.57,5.57,0,0,1-.33,1.52,6.45,6.45,0,0,0-.29,1.17ZM183.13,154Zm-26.25,0Zm4.71-25.64h16.84a6.09,6.09,0,0,1,6.08,6.08v16.84a6,6,0,0,0,.25.93c.07.23.14.45.2.67,1.06-.86,1.55-2.82,1.55-4.6V129.47a4.08,4.08,0,0,0-4.08-4.08H157.58a4.08,4.08,0,0,0-4.08,4.08v18.84c0,1.79.49,3.74,1.55,4.6.06-.22.13-.44.2-.67a6,6,0,0,0,.25-.93V134.47A6.09,6.09,0,0,1,161.58,128.39Z"/><path class="cls-3" d="M171.5,133.89v-20a1.5,1.5,0,0,0-3,0v20a1.5,1.5,0,0,0,3,0Z"/><polyline class="cls-9" points="93.92 101.89 93.92 213.89 122 213.89 122 101.89"/><polygon class="cls-10" points="122 124.29 122 213.89 114.34 213.89 122 124.29"/><polyline class="cls-11" points="93.92 101.89 93.92 107.89 122 107.89 122 101.89"/><polygon class="cls-3" points="123.5 214.39 92.42 214.39 92.42 100.89 95.42 100.89 95.42 211.39 120.5 211.39 120.5 100.89 123.5 100.89 123.5 214.39"/><rect class="cls-6" x="89" y="97.39" width="37" height="2"/><path class="cls-12" d="M98.5,202.89h-1v-5h1Zm0-11h-1v-5h1Zm0-11h-1v-5h1Zm0-11h-1v-5h1Zm0-11h-1v-5h1Zm0-11h-1v-5h1Zm0-11h-1v-5h1Zm0-11h-1v-5h1Zm0-11h-1v-5h1Z"/><path class="cls-12" d="M118,201.89h-1v-5h1Zm0-11h-1v-5h1Zm0-11h-1v-5h1Zm0-11h-1v-5h1Zm0-11h-1v-5h1Zm0-11h-1v-5h1Zm0-11h-1v-5h1Zm0-11h-1v-5h1Zm0-11h-1v-5h1Z"/><rect class="cls-3" x="101.5" y="193.39" width="2" height="19"/><rect class="cls-3" x="106" y="186.89" width="2" height="19"/><rect class="cls-3" x="89" y="99.39" width="37" height="3"/><circle class="cls-3" cx="107.25" cy="170.14" r="2.75"/><circle class="cls-3" cx="107.25" cy="158.64" r="2.75"/><circle class="cls-3" cx="107.25" cy="147.14" r="2.75"/><path class="cls-1" d="M124,130v18.84c0,2.57-.94,4.72-3.43,5,.28-.62-.57-1.31-.57-2V135a5.1,5.1,0,0,0-5.08-5.08H98.08A5.1,5.1,0,0,0,93,135v16.84a4.93,4.93,0,0,0,.43,2,5.08,5.08,0,0,1-4.43-5V130a5.1,5.1,0,0,1,5.08-5.08h24.84A5.1,5.1,0,0,1,124,130Z"/><path class="cls-8" d="M125,130v18.84a5.08,5.08,0,0,1-4.43,5,4.93,4.93,0,0,0,.43-2V135a5.09,5.09,0,0,0-3.07-4.66,24.4,24.4,0,0,0,2.48-5.39A5.09,5.09,0,0,1,125,130Z"/><path class="cls-3" d="M94.57,155.55l-1.77-.22c-3-.37-4.31-3.79-4.31-7V129.47a6.09,6.09,0,0,1,6.08-6.08h24.84a6.09,6.09,0,0,1,6.08,6.08v18.84c0,3.23-1.33,6.65-4.31,7l-1.77.22.7-1.55a6.45,6.45,0,0,0-.29-1.17,5.57,5.57,0,0,1-.33-1.52V134.47a4.08,4.08,0,0,0-4.08-4.08H98.58a4.08,4.08,0,0,0-4.08,4.08v16.84a5.57,5.57,0,0,1-.33,1.52,6.45,6.45,0,0,0-.29,1.17ZM120.13,154Zm-26.25,0Zm4.71-25.64h16.84a6.09,6.09,0,0,1,6.08,6.08v16.84a6,6,0,0,0,.25.93c.07.23.14.45.2.67,1.06-.86,1.55-2.82,1.55-4.6V129.47a4.08,4.08,0,0,0-4.08-4.08H94.58a4.08,4.08,0,0,0-4.08,4.08v18.84c0,1.79.49,3.74,1.55,4.6.06-.22.13-.44.2-.67a6,6,0,0,0,.25-.93V134.47A6.09,6.09,0,0,1,98.58,128.39Z"/><path class="cls-3" d="M108.5,133.89v-20a1.5,1.5,0,0,0-3,0v20a1.5,1.5,0,0,0,3,0Z"/><path class="cls-3" d="M89,252.39a5.55,5.55,0,0,1-5.08-7.81l6.29-14.14,4.14,14.91a5.56,5.56,0,0,1-5.35,7Zm.77-16-4,9a3.55,3.55,0,0,0,3.25,5,3.55,3.55,0,0,0,3.42-4.51Z"/><circle class="cls-1" cx="49.44" cy="104.8" r="1.42" transform="translate(-1 0.48) rotate(-0.55)"/><circle class="cls-1" cx="49.48" cy="109.07" r="1.42" transform="translate(-1.04 0.48) rotate(-0.55)"/><circle class="cls-1" cx="49.52" cy="113.34" r="1.42" transform="translate(-1.08 0.48) rotate(-0.55)"/><circle class="cls-1" cx="45.44" cy="99.8" r="1.42" transform="translate(-0.95 0.44) rotate(-0.55)"/><circle class="cls-1" cx="45.48" cy="104.07" r="1.42" transform="translate(-0.99 0.44) rotate(-0.55)"/><circle class="cls-1" cx="45.52" cy="108.34" r="1.42" transform="translate(-1.03 0.44) rotate(-0.55)"/><circle class="cls-1" cx="202.44" cy="246.8" r="1.42" transform="translate(-2.35 1.95) rotate(-0.55)"/><circle class="cls-1" cx="202.48" cy="251.07" r="1.42" transform="translate(-2.39 1.95) rotate(-0.55)"/><circle class="cls-1" cx="202.52" cy="255.34" r="1.42" transform="translate(-2.43 1.95) rotate(-0.55)"/><circle class="cls-1" cx="198.44" cy="241.8" r="1.42" transform="translate(-2.31 1.91) rotate(-0.55)"/><circle class="cls-1" cx="198.48" cy="246.07" r="1.42" transform="translate(-2.35 1.91) rotate(-0.55)"/><circle class="cls-1" cx="198.52" cy="250.34" r="1.42" transform="translate(-2.39 1.91) rotate(-0.55)"/><circle class="cls-1" cx="274.44" cy="191.8" r="1.42" transform="translate(-1.82 2.64) rotate(-0.55)"/><circle class="cls-1" cx="274.48" cy="196.07" r="1.42" transform="translate(-1.86 2.64) rotate(-0.55)"/><circle class="cls-1" cx="274.52" cy="200.34" r="1.42" transform="translate(-1.9 2.64) rotate(-0.55)"/><circle class="cls-1" cx="70.48" cy="77.07" r="1.42" transform="translate(-0.73 0.68) rotate(-0.55)"/><circle class="cls-1" cx="70.52" cy="81.34" r="1.42" transform="translate(-0.78 0.68) rotate(-0.55)"/><circle class="cls-2" cx="231.44" cy="76.8" r="1.42" transform="translate(-0.72 2.22) rotate(-0.55)"/><circle class="cls-2" cx="231.48" cy="81.07" r="1.42" transform="translate(-0.77 2.22) rotate(-0.55)"/><circle class="cls-2" cx="231.52" cy="85.34" r="1.42" transform="translate(-0.81 2.22) rotate(-0.55)"/><circle class="cls-2" cx="231.44" cy="62.8" r="1.42" transform="translate(-0.59 2.22) rotate(-0.55)"/><circle class="cls-2" cx="231.48" cy="67.07" r="1.42" transform="translate(-0.63 2.22) rotate(-0.55)"/><circle class="cls-2" cx="231.52" cy="71.34" r="1.42" transform="translate(-0.67 2.22) rotate(-0.55)"/><circle class="cls-2" cx="229.44" cy="206.8" r="1.42" transform="translate(-1.97 2.21) rotate(-0.55)"/><circle class="cls-2" cx="229.48" cy="211.07" r="1.42" transform="translate(-2.01 2.21) rotate(-0.55)"/><circle class="cls-2" cx="229.52" cy="215.34" r="1.42" transform="translate(-2.05 2.21) rotate(-0.55)"/><circle class="cls-2" cx="225.44" cy="201.8" r="1.42" transform="translate(-1.92 2.17) rotate(-0.55)"/><circle class="cls-2" cx="225.48" cy="206.07" r="1.42" transform="translate(-1.96 2.17) rotate(-0.55)"/><circle class="cls-2" cx="225.52" cy="210.34" r="1.42" transform="translate(-2 2.17) rotate(-0.55)"/><circle class="cls-2" cx="241.44" cy="229.8" r="1.42" transform="translate(-2.19 2.32) rotate(-0.55)"/><circle class="cls-2" cx="241.48" cy="234.07" r="1.42" transform="translate(-2.23 2.32) rotate(-0.55)"/><circle class="cls-2" cx="241.52" cy="238.34" r="1.42" transform="translate(-2.27 2.32) rotate(-0.55)"/><circle class="cls-2" cx="237.44" cy="224.8" r="1.42" transform="translate(-2.14 2.28) rotate(-0.55)"/><circle class="cls-2" cx="237.48" cy="229.07" r="1.42" transform="translate(-2.18 2.28) rotate(-0.55)"/><circle class="cls-2" cx="237.52" cy="233.34" r="1.42" transform="translate(-2.22 2.28) rotate(-0.55)"/><circle class="cls-2" cx="212.44" cy="267.8" r="1.42" transform="translate(-2.55 2.05) rotate(-0.55)"/><circle class="cls-2" cx="212.48" cy="272.07" r="1.42" transform="translate(-2.59 2.05) rotate(-0.55)"/><circle class="cls-2" cx="212.52" cy="276.34" r="1.42" transform="translate(-2.64 2.05) rotate(-0.55)"/><circle class="cls-2" cx="208.44" cy="262.8" r="1.42" transform="translate(-2.51 2.01) rotate(-0.55)"/><circle class="cls-2" cx="208.48" cy="267.07" r="1.42" transform="translate(-2.55 2.01) rotate(-0.55)"/><circle class="cls-2" cx="208.52" cy="271.34" r="1.42" transform="translate(-2.59 2.01) rotate(-0.55)"/><circle class="cls-2" cx="238.44" cy="99.8" r="1.42" transform="translate(-0.94 2.29) rotate(-0.55)"/><circle class="cls-2" cx="238.48" cy="104.07" r="1.42" transform="translate(-0.99 2.29) rotate(-0.55)"/><circle class="cls-2" cx="238.52" cy="108.34" r="1.42" transform="translate(-1.03 2.29) rotate(-0.55)"/><circle class="cls-2" cx="234.44" cy="94.8" r="1.42" transform="translate(-0.9 2.25) rotate(-0.55)"/><circle class="cls-2" cx="234.48" cy="99.07" r="1.42" transform="translate(-0.94 2.25) rotate(-0.55)"/><circle class="cls-2" cx="234.52" cy="103.34" r="1.42" transform="translate(-0.98 2.25) rotate(-0.55)"/><circle class="cls-2" cx="256.44" cy="204.8" r="1.42" transform="translate(-1.95 2.46) rotate(-0.55)"/><circle class="cls-2" cx="256.48" cy="209.07" r="1.42" transform="translate(-1.99 2.46) rotate(-0.55)"/><circle class="cls-2" cx="256.52" cy="213.34" r="1.42" transform="translate(-2.03 2.47) rotate(-0.55)"/><circle class="cls-2" cx="252.44" cy="199.8" r="1.42" transform="translate(-1.9 2.43) rotate(-0.55)"/><circle class="cls-2" cx="252.48" cy="204.07" r="1.42" transform="translate(-1.94 2.43) rotate(-0.55)"/><circle class="cls-2" cx="252.52" cy="208.34" r="1.42" transform="translate(-1.98 2.43) rotate(-0.55)"/><path class="cls-5" d="M54,27H233.27a8.57,8.57,0,0,1,6.36,14.33L231.77,50A118.86,118.86,0,0,1,55.55,50l-7.86-8.68A8.57,8.57,0,0,1,54,27Z"/><path class="cls-4" d="M239.62,36.72l-7.86,8.68a118.86,118.86,0,0,1-176.22,0l-7.86-8.68a8.57,8.57,0,0,1-1.85-3.22,8.42,8.42,0,0,0,1.85,8.22l7.86,8.68a118.86,118.86,0,0,0,176.22,0l7.86-8.68a8.42,8.42,0,0,0,1.85-8.22A8.57,8.57,0,0,1,239.62,36.72Z"/><path class="cls-6" d="M56,34.39H235.27a8.46,8.46,0,0,1,7.83,5.09,8.59,8.59,0,0,0-7.83-12.09H56a8.59,8.59,0,0,0-7.83,12.09A8.46,8.46,0,0,1,56,34.39Z"/><path class="cls-3" d="M143.66,92.09A121.07,121.07,0,0,1,54.07,52.35l-7.86-8.68A10.57,10.57,0,0,1,54,26H233.27a10.57,10.57,0,0,1,7.84,17.67l-7.86,8.68A121.07,121.07,0,0,1,143.66,92.09ZM54,30a6.57,6.57,0,0,0-4.87,11L57,49.67a117.07,117.07,0,0,0,86.63,38.42,117.07,117.07,0,0,0,86.63-38.42L238.14,41a6.57,6.57,0,0,0-4.87-11Z"/><rect class="cls-3" x="227.17" y="39.62" width="3.5" height="3" transform="translate(44.81 183.24) rotate(-47.85)"/><path class="cls-3" d="M147,84.17l-.09-3c2.34-.07,4.71-.21,7-.44l.29,3C151.87,84,149.43,84.1,147,84.17Zm-6.22,0c-2.41-.07-4.84-.22-7.24-.45l.29-3c2.33.22,4.71.37,7,.44ZM160.44,83,160,80c2.32-.35,4.65-.79,6.94-1.3l.65,2.93C165.22,82.14,162.82,82.59,160.44,83Zm-33.06,0c-2.38-.37-4.78-.82-7.13-1.34l.65-2.93c2.29.51,4.62.95,6.94,1.3Zm-13.16-2.87c-2.32-.66-4.65-1.4-6.91-2.22l1-2.82c2.2.79,4.46,1.51,6.72,2.15Zm59.39,0-.82-2.89c2.26-.64,4.52-1.37,6.72-2.16l1,2.82C178.26,78.69,175.93,79.43,173.61,80.09Zm-72.1-4.48c-2.22-.94-4.43-2-6.58-3.06l1.36-2.68c2.08,1.06,4.24,2.06,6.4,3Zm84.81,0-1.17-2.76c2.15-.91,4.31-1.92,6.4-3l1.36,2.68C190.75,73.64,188.53,74.67,186.32,75.61Zm-96.85-6c-2.08-1.21-4.15-2.51-6.14-3.86L85,63.23C86.94,64.54,89,65.81,91,67Zm108.9,0L196.86,67c2-1.18,4-2.44,6-3.76l1.68,2.48C202.52,67.05,200.45,68.35,198.37,69.57ZM78.28,62.08c-1.91-1.46-3.8-3-5.61-4.6l2-2.26c1.76,1.55,3.6,3.05,5.46,4.47Zm131.29,0-1.82-2.38c1.86-1.42,3.7-2.93,5.46-4.48l2,2.25C213.37,59,211.48,60.6,209.57,62.06ZM68.1,53.25c-1.51-1.49-3-3-4.43-4.62L63.1,48l2.22-2,.56.62c1.39,1.54,2.84,3,4.31,4.49Zm151.64,0-2.1-2.14c1.46-1.44,2.9-2.94,4.29-4.47l.59-.65,2.22,2-.59.65C222.72,50.2,221.24,51.75,219.74,53.22Z"/><rect class="cls-3" x="57.4" y="39.37" width="3" height="3.5" transform="translate(-12.36 50.18) rotate(-42.17)"/><rect class="cls-1" x="127" y="41.39" width="36.61" height="20.5" rx="4.31" ry="4.31"/><path class="cls-8" d="M163.4,45.39H127.2a4.35,4.35,0,0,1,4.11-3h28A4.33,4.33,0,0,1,163.4,45.39Z"/><path class="cls-3" d="M159.29,63.39h-28a5.82,5.82,0,0,1-5.81-5.81V45.7a5.82,5.82,0,0,1,5.81-5.81h28a5.82,5.82,0,0,1,5.81,5.81V57.58A5.82,5.82,0,0,1,159.29,63.39Zm-28-20.5a2.82,2.82,0,0,0-2.81,2.81V57.58a2.82,2.82,0,0,0,2.81,2.81h28a2.82,2.82,0,0,0,2.81-2.81V45.7a2.82,2.82,0,0,0-2.81-2.81Z"/><rect class="cls-7" x="90" y="37.39" width="12" height="20" rx="6" ry="6"/><circle class="cls-1" cx="77.22" cy="42.56" r="1.42" transform="translate(33.93 119.37) rotate(-89.46)"/><circle class="cls-1" cx="72.95" cy="42.52" r="1.42" transform="translate(29.74 115.06) rotate(-89.46)"/><circle class="cls-1" cx="68.67" cy="42.48" r="1.42" transform="translate(25.55 110.75) rotate(-89.46)"/><circle class="cls-1" cx="82.29" cy="38.66" r="1.42" transform="translate(42.86 120.58) rotate(-89.46)"/><circle class="cls-1" cx="78.02" cy="38.62" r="1.42" transform="translate(38.67 116.27) rotate(-89.46)"/><circle class="cls-1" cx="73.75" cy="38.57" r="1.42" transform="translate(34.48 111.96) rotate(-89.46)"/><circle class="cls-1" cx="116.22" cy="43.56" r="1.42" transform="translate(71.56 159.36) rotate(-89.46)"/><circle class="cls-1" cx="111.95" cy="43.52" r="1.42" transform="translate(67.37 155.05) rotate(-89.46)"/><circle class="cls-1" cx="107.67" cy="43.48" r="1.42" transform="translate(63.18 150.74) rotate(-89.46)"/><circle class="cls-1" cx="121.29" cy="39.66" r="1.42" transform="translate(80.49 160.57) rotate(-89.46)"/><circle class="cls-1" cx="117.02" cy="39.62" r="1.42" transform="translate(76.3 156.26) rotate(-89.46)"/><circle class="cls-1" cx="112.75" cy="39.57" r="1.42" transform="translate(72.11 151.94) rotate(-89.46)"/></g></g></svg>